<svg xmlns="http://www.w3.org/2000/svg" width="500" height="500" viewBox="0 0 500 500" class="flex-img">
    <path d="M366.7 22h-58c-.5-13-28.5-22-63-22s-62.6 9-63 22h-49.4c-25.3 0-45.7 36-45.7 81 0 44.6 20.4 80.8 45.7 80.8h233.4c25.3 0 45.7-36.2 45.7-81 0-44.6-20.4-81-45.7-81zm-10 146.7H144.4c-23 0-41.6-28.5-41.6-66.4 0-37.8 18.6-66.3 41.6-66.3H357c23 0 41.5 28.5 41.5 66.3 0 38-18.6 66.4-41.6 66.4z"/>
    <path d="M384.4 203.2H134c-9 0-16.2 7-16.2 16l10.8 198.6c0 9 7.2 16.4 16.2 16.4h61v49.3c0 9 7.2 16.5 16 16.5h73.5c9 0 16.2-7.6 16.2-16.5v-49.3h62c9 0 16.2-7.6 16.2-16.6l10.8-198.4c0-9-7.2-16-16-16zm-57.2 115.5h-137c-9 0-16.3-7.2-16.3-16.2s7-16.2 16-16.2h137c9 0 16 7.3 16 16.2 0 9-7 16.2-16 16.2z"/>
</svg>