<svg xmlns="http://www.w3.org/2000/svg" width="500" height="500" viewBox="0 0 500 500" class="flex-img">
    <path d="M276.3 176H11C36 96 99.7 33.3 180.3 10l96 166z"/>
    <path d="M197.8 191L67 420.3C25.5 375.7 0 315.8 0 250c0-20.3 2.4-40 7-59h190.8z"/>
    <path d="M425 71.4L328.3 236 195.3 6c17.6-4 36-6 54.7-6 68 0 129.8 27.2 175 71.4"/>
    <path d="M488 327c-25.8 79.3-90 141.3-170.6 163.8L224 327h264z"/>
    <path d="M302.3 494.5c-17 3.6-34.4 5.5-52.3 5.5-66.7 0-127.2-26-172-68.6l94.2-165.2 130 228.3z"/>
    <path d="M500 250c0 21.4-2.7 42.2-7.8 62h-191L435.8 82.7c40 44.3 64.3 103 64.3 167.3"/>
</svg>