<svg xmlns="http://www.w3.org/2000/svg" width="500" height="500" viewBox="0 0 500 500" class="flex-img">
    <path d="M468.8 123.5H406s-18 0-31.2-31.3c-6.7-16-14-31.2-31.3-31.2h-125c-17.2 0-24.7 15.3-31.2 31.3-12.7 31.2-31.3 31.2-31.3 31.2h-31c0-17.3-14-31.3-31.3-31.3H62.5c-17.3 0-31.3 14-31.3 31.3-17.2 0-31.2 14-31.2 31.3v62.4h173.6c21.7-37.2 61.5-62.4 107.7-62.4 46 0 86 25.2 107.6 62.4h111v-62.4c0-17.3-14-31.3-31.7-31.3zM109.4 186H47c-8.7 0-15.8-7-15.8-15.6s7-15.7 15.7-15.7h62c8.5 0 15.5 7 15.5 15.7 0 8.6-7 15.6-15.7 15.6zm78 93.8c0 51.7 42 93.7 93.8 93.7s93.8-42 93.8-93.8c0-51.7-42-93.7-93.8-93.7-51.7 0-93.7 42-93.7 93.8zm218.8 0c0 69-56 125-125 125s-125-56-125-125c0-11 2-21.3 4.5-31.3H0v156.3C0 422 14 436 31.3 436h437.4c17.3 0 31.3-14 31.3-31.3v-156h-98.2c2.6 10 4.4 20.3 4.4 31.2z"/>
</svg>